<svg width="43" height="43" viewBox="0 0 43 43" fill="none" xmlns="http://www.w3.org/2000/svg">
<path d="M21.3125 0C9.53906 0 0 9.53906 0 21.3125C0 33.0859 9.53906 42.625 21.3125 42.625C33.0859 42.625 42.625 33.0859 42.625 21.3125C42.625 9.53906 33.0859 0 21.3125 0ZM17.0586 32.2094L6.25625 21.407L17.0586 10.6047L20.0836 13.6469L18.0039 15.7266L17.05 14.7727L10.4156 21.407L17.05 28.0414L19.3359 25.7555L14.7727 21.2094L16.8695 19.1125L23.5039 25.7469L17.0586 32.2094ZM25.5664 32.0203L22.5414 28.9953L24.6125 26.8984L25.5664 27.8523L32.2008 21.218L25.5664 14.5836L23.2891 16.8609L27.8523 21.407L25.7555 23.5039L19.1211 16.8695L25.5664 10.4242L36.3688 21.2266L25.5664 32.0203Z" fill="black"/>
</svg>
